<svg xmlns="http://www.w3.org/2000/svg" shape-rendering="geometricPrecision"
    text-rendering="geometricPrecision" image-rendering="optimizeQuality" fill-rule="evenodd"
    clip-rule="evenodd" viewBox="0 0 496 512.24">
    <path fill-rule="nonzero"
        d="m303.36 5.1 44.31 76.74h95.18l2.94 5.09L496 173.88l-47.28 81.87L496 337.62l-26.57 46.01-26.58 46.03h-94.73l-47.69 82.58H194.17l-47.67-82.58H53.15l-2.95-5.09L0 337.62l47.28-81.87L0 173.88l26.57-46.01 26.58-46.03h93.8L194.2 0h106.22l2.94 5.1zm-22.11 434.2c1.72-2.88 5.47-3.82 8.35-2.1a6.11 6.11 0 0 1 2.1 8.36l-14.42 24.02c-1.13 1.9-3.15 2.95-5.22 2.95l-23.34.03a6.11 6.11 0 1 1 0-12.22h19.9l12.63-21.04zm0-165.72c1.72-2.88 5.47-3.82 8.35-2.09 2.88 1.72 3.82 5.47 2.1 8.35l-14.42 24.02a6.067 6.067 0 0 1-5.22 2.96l-23.34.02c-3.37 0-6.11-2.74-6.11-6.11s2.74-6.11 6.11-6.11h19.9l12.63-21.04zm-.73-165.05a6.11 6.11 0 0 1 8.36-2.1c2.88 1.72 3.82 5.47 2.09 8.36l-14.41 24.01a6.067 6.067 0 0 1-5.22 2.96l-23.34.03a6.116 6.116 0 0 1 0-12.23h19.9l12.62-21.03zM140.7 358.73c1.73-2.89 5.48-3.82 8.36-2.1 2.88 1.72 3.82 5.47 2.1 8.35L136.74 389a6.067 6.067 0 0 1-5.22 2.96l-23.34.02c-3.37 0-6.11-2.74-6.11-6.11s2.74-6.11 6.11-6.11h19.9l12.62-21.03zm.43-168.77c1.72-2.89 5.47-3.82 8.35-2.1 2.88 1.72 3.82 5.47 2.1 8.35l-14.41 24.02a6.096 6.096 0 0 1-5.23 2.96l-23.33.02c-3.38 0-6.11-2.73-6.11-6.11a6.11 6.11 0 0 1 6.11-6.11h19.9l12.62-21.03zm284.52 168.77c1.73-2.89 5.48-3.82 8.36-2.1 2.88 1.72 3.82 5.47 2.1 8.35L421.69 389a6.067 6.067 0 0 1-5.22 2.96l-23.34.02c-3.37 0-6.11-2.74-6.11-6.11s2.74-6.11 6.11-6.11h19.9l12.62-21.03zm.43-168.77c1.72-2.89 5.47-3.82 8.35-2.1 2.88 1.72 3.82 5.47 2.1 8.35l-14.41 24.02a6.096 6.096 0 0 1-5.23 2.96l-23.33.02c-3.38 0-6.11-2.73-6.11-6.11a6.11 6.11 0 0 1 6.11-6.11h19.9l12.62-21.03zm-219.89 158.6-41.53 71.94 41.26 71.46h82.8l41.38-71.72-20.69-35.84-20.7-35.84h-82.52zm-58.82 60.73 41.53-71.93-41.26-71.46h-82.8l-41.38 71.72 20.69 35.83 20.7 35.84h82.52zm59.69-81.1h81.88l41.81-72.44-41.39-71.69h-82.72l-41.39 71.69 41.81 72.44zm224.1-62.29h-82.81l-41.4 71.72 41.38 71.67h82.82l41.39-71.67-41.38-71.72zm-242.49-91.37-41.75-72.32H64.85l-41.39 71.67 41.38 71.73h82.8l41.03-71.08zM164.89 91.4l41.78 72.37h82.05l41.38-71.72-20.69-35.84-20.7-35.83H205.9L164.89 91.4zm286.95 46.65-20.69-35.84h-82.82l-41.38 71.67 41.41 71.73h82.79l41.39-71.73-20.7-35.83z" />
</svg>